<svg xmlns="http://www.w3.org/2000/svg" width="346.37" height="44.134" viewBox="0 0 346.37 44.134">
  <g id="그룹_10" data-name="그룹 10" transform="translate(-213.378 -836.325)">
    <path id="패스_6" data-name="패스 6" d="M.1-3.052l4.1-10.01a26.526,26.526,0,0,0,4.919,2.82,10.64,10.64,0,0,0,4.041.891,3.727,3.727,0,0,0,2.075-.5,1.549,1.549,0,0,0,.757-1.355q0-1.489-3.784-2.271-1.221-.269-1.9-.415a11.288,11.288,0,0,1-6.128-3.467,9.223,9.223,0,0,1-2.124-6.2,11.879,11.879,0,0,1,4.126-9.375q4.126-3.613,10.815-3.613a23.089,23.089,0,0,1,6.055.806A28.071,28.071,0,0,1,29.053-33.3L25.146-23.95a16.024,16.024,0,0,0-3.723-2.087,10.047,10.047,0,0,0-3.625-.72,3.967,3.967,0,0,0-2.075.452,1.406,1.406,0,0,0-.732,1.257q0,1.514,5.347,2.661.854.2,1.318.293A10.183,10.183,0,0,1,27.466-18.7a9.4,9.4,0,0,1,2.124,6.2,12.3,12.3,0,0,1-4.285,9.692Q21.021.952,14.16.952a25.571,25.571,0,0,1-7.031-1A31.845,31.845,0,0,1,.1-3.052Z" transform="matrix(0.985, -0.174, 0.174, 0.985, 490.335, 878.814)"/>
    <path id="패스_7" data-name="패스 7" d="M2.954-16.357V-35.742H15.8V-16.26q0,3.394.806,4.675A3,3,0,0,0,19.36-10.3a3.007,3.007,0,0,0,2.759-1.318,9.294,9.294,0,0,0,.83-4.639V-35.742H35.791v19.385a32.436,32.436,0,0,1-.5,6.274,11.6,11.6,0,0,1-1.6,4.126A14.021,14.021,0,0,1,27.832-.83,19.335,19.335,0,0,1,19.36.952a19.394,19.394,0,0,1-8.5-1.782A14.021,14.021,0,0,1,5-5.957a11.471,11.471,0,0,1-1.562-4.077A33.313,33.313,0,0,1,2.954-16.357Z" transform="matrix(0.985, -0.174, 0.174, 0.985, 524.335, 879.508)"/>
    <path id="패스_9" data-name="패스 9" d="M3.345,0V-35.742H16.211V-11.6h12.5V0Z" transform="matrix(0.985, 0.174, -0.174, 0.985, 210.084, 874.271)"/>
    <path id="패스_8" data-name="패스 8" d="M3.589,0V-35.742H16.65V0Z" transform="translate(249.85 878.08) rotate(-7)"/>
    <path id="패스_10" data-name="패스 10" d="M36.011,0,34.448-14.16q-.146-1.636-.293-3.259t-.244-3.259q-.22,1.538-.623,3.259T32.3-13.745L28.2,0H20.557l-4.1-13.745q-.61-1.953-1-3.674t-.61-3.259q-.122,1.66-.256,3.271t-.281,3.247L12.744,0H.146l6.1-35.742H19.507L22.046-26.9l.366,1.245a54.61,54.61,0,0,1,1.978,9.2h.22q.293-2.271.879-4.834t1.563-5.762l2.661-8.691H42.944L48.608,0Z" transform="translate(275.509 880.074) rotate(-9)"/>
    <path id="패스_12" data-name="패스 12" d="M9.79-15.991V-35.742H22.656V-12.5a22.038,22.038,0,0,1-.4,4.761,10.634,10.634,0,0,1-1.306,3.2A11.213,11.213,0,0,1,16.553-.488,13.089,13.089,0,0,1,10.4.952,17.179,17.179,0,0,1,4.553,0,16.607,16.607,0,0,1-.488-2.954l4.2-9.595a10.681,10.681,0,0,0,2,1.746,3.191,3.191,0,0,0,1.685.549A1.9,1.9,0,0,0,9.29-11.3,13.469,13.469,0,0,0,9.79-15.991Z" transform="matrix(0.985, -0.174, 0.174, 0.985, 334.335, 876.307)"/>
    <path id="패스_11" data-name="패스 11" d="M2.954-16.357V-35.742H15.8V-16.26q0,3.394.806,4.675A3,3,0,0,0,19.36-10.3a3.007,3.007,0,0,0,2.759-1.318,9.294,9.294,0,0,0,.83-4.639V-35.742H35.791v19.385a32.436,32.436,0,0,1-.5,6.274,11.6,11.6,0,0,1-1.6,4.126A14.021,14.021,0,0,1,27.832-.83,19.335,19.335,0,0,1,19.36.952a19.394,19.394,0,0,1-8.5-1.782A14.021,14.021,0,0,1,5-5.957a11.471,11.471,0,0,1-1.562-4.077A33.313,33.313,0,0,1,2.954-16.357Z" transform="translate(358 874.409)"/>
    <path id="패스_13" data-name="패스 13" d="M3.345,0V-35.742h12.6l11.108,18.7a23.605,23.605,0,0,1-.305-2.759q-.085-1.514-.085-3.955V-35.742H39.038V0h-12.7L15.356-18.555q.2,1.2.293,2.576t.1,3.088V0Z" transform="matrix(0.985, 0.174, -0.174, 0.985, 396.084, 873.68)"/>
    <path id="패스_14" data-name="패스 14" d="M3.345,0V-35.742h23.9v9.692h-11.3v3.442H26.2v9.155H15.942v3.76h11.6V0Z" transform="matrix(0.985, -0.174, 0.174, 0.985, 451.335, 876.307)"/>
  </g>
</svg>
