<svg xmlns="http://www.w3.org/2000/svg" xmlns:xlink="http://www.w3.org/1999/xlink" width="58.156" height="86.686" viewBox="0 0 58.156 86.686">
  <defs>
    <filter id="패스_4" x="4.278" y="0" width="37.187" height="45.604" filterUnits="userSpaceOnUse">
      <feOffset dx="2" dy="2" input="SourceAlpha"/>
      <feGaussianBlur stdDeviation="1" result="blur"/>
      <feFlood flood-opacity="0.161"/>
      <feComposite operator="in" in2="blur"/>
      <feComposite in="SourceGraphic"/>
    </filter>
    <filter id="패스_4-2" x="4.278" y="0" width="37.187" height="45.604" filterUnits="userSpaceOnUse">
      <feOffset dx="-5" dy="5" input="SourceAlpha"/>
      <feGaussianBlur stdDeviation="2.5" result="blur-2"/>
      <feFlood flood-color="#333" flood-opacity="0.639" result="color"/>
      <feComposite operator="out" in="SourceGraphic" in2="blur-2"/>
      <feComposite operator="in" in="color"/>
      <feComposite operator="in" in2="SourceGraphic"/>
    </filter>
    <filter id="패스_5" x="22.991" y="18.111" width="35.165" height="46.156" filterUnits="userSpaceOnUse">
      <feOffset dx="2" dy="3" input="SourceAlpha"/>
      <feGaussianBlur stdDeviation="1" result="blur-3"/>
      <feFlood flood-opacity="0.161"/>
      <feComposite operator="in" in2="blur-3"/>
      <feComposite in="SourceGraphic"/>
    </filter>
    <filter id="패스_5-2" x="22.991" y="18.111" width="35.165" height="46.156" filterUnits="userSpaceOnUse">
      <feOffset dx="2" dy="2" input="SourceAlpha"/>
      <feGaussianBlur stdDeviation="2.5" result="blur-4"/>
      <feFlood flood-opacity="0.471" result="color-2"/>
      <feComposite operator="out" in="SourceGraphic" in2="blur-4"/>
      <feComposite operator="in" in="color-2"/>
      <feComposite operator="in" in2="SourceGraphic"/>
    </filter>
    <filter id="패스_6" x="0" y="38.635" width="41.556" height="48.052" filterUnits="userSpaceOnUse">
      <feOffset dx="2" dy="2" input="SourceAlpha"/>
      <feGaussianBlur stdDeviation="1" result="blur-5"/>
      <feFlood flood-opacity="0.161"/>
      <feComposite operator="in" in2="blur-5"/>
      <feComposite in="SourceGraphic"/>
    </filter>
    <filter id="패스_6-2" x="0" y="38.635" width="41.556" height="48.052" filterUnits="userSpaceOnUse">
      <feOffset dx="-5" dy="5" input="SourceAlpha"/>
      <feGaussianBlur stdDeviation="2.5" result="blur-6"/>
      <feFlood flood-opacity="0.302" result="color-3"/>
      <feComposite operator="out" in="SourceGraphic" in2="blur-6"/>
      <feComposite operator="in" in="color-3"/>
      <feComposite operator="in" in2="SourceGraphic"/>
    </filter>
  </defs>
  <g id="그룹_2" data-name="그룹 2" transform="translate(-474.637 -584.652)">
    <g data-type="innerShadowGroup">
      <g transform="matrix(1, 0, 0, 1, 474.64, 584.65)" filter="url(#패스_4)">
        <path id="패스_4-3" data-name="패스 4" d="M3.345,0V-35.742H16.211V-11.6h12.5V0Z" transform="matrix(0.98, 0.17, -0.17, 0.98, 1.98, 35.62)" fill="#707070"/>
      </g>
      <g transform="matrix(1, 0, 0, 1, 474.64, 584.65)" filter="url(#패스_4-2)">
        <path id="패스_4-4" data-name="패스 4" d="M3.345,0V-35.742H16.211V-11.6h12.5V0Z" transform="matrix(0.98, 0.17, -0.17, 0.98, 1.98, 35.62)" fill="#fff"/>
      </g>
    </g>
    <g data-type="innerShadowGroup">
      <g transform="matrix(1, 0, 0, 1, 474.64, 584.65)" filter="url(#패스_5)">
        <path id="패스_5-3" data-name="패스 5" d="M9.79-15.991V-35.742H22.656V-12.5a22.038,22.038,0,0,1-.4,4.761,10.634,10.634,0,0,1-1.306,3.2A11.213,11.213,0,0,1,16.553-.488,13.089,13.089,0,0,1,10.4.952,17.179,17.179,0,0,1,4.553,0,16.607,16.607,0,0,1-.488-2.954l4.2-9.595a10.681,10.681,0,0,0,2,1.746,3.191,3.191,0,0,0,1.685.549A1.9,1.9,0,0,0,9.29-11.3,13.469,13.469,0,0,0,9.79-15.991Z" transform="matrix(0.98, -0.17, 0.17, 0.98, 30.68, 57.24)" fill="#707070"/>
      </g>
      <g transform="matrix(1, 0, 0, 1, 474.64, 584.65)" filter="url(#패스_5-2)">
        <path id="패스_5-4" data-name="패스 5" d="M9.79-15.991V-35.742H22.656V-12.5a22.038,22.038,0,0,1-.4,4.761,10.634,10.634,0,0,1-1.306,3.2A11.213,11.213,0,0,1,16.553-.488,13.089,13.089,0,0,1,10.4.952,17.179,17.179,0,0,1,4.553,0,16.607,16.607,0,0,1-.488-2.954l4.2-9.595a10.681,10.681,0,0,0,2,1.746,3.191,3.191,0,0,0,1.685.549A1.9,1.9,0,0,0,9.29-11.3,13.469,13.469,0,0,0,9.79-15.991Z" transform="matrix(0.98, -0.17, 0.17, 0.98, 30.68, 57.24)" fill="#fff"/>
      </g>
    </g>
    <g data-type="innerShadowGroup">
      <g transform="matrix(1, 0, 0, 1, 474.64, 584.65)" filter="url(#패스_6)">
        <path id="패스_6-3" data-name="패스 6" d="M.1-3.052l4.1-10.01a26.526,26.526,0,0,0,4.919,2.82,10.64,10.64,0,0,0,4.041.891,3.727,3.727,0,0,0,2.075-.5,1.549,1.549,0,0,0,.757-1.355q0-1.489-3.784-2.271-1.221-.269-1.9-.415a11.288,11.288,0,0,1-6.128-3.467,9.223,9.223,0,0,1-2.124-6.2,11.879,11.879,0,0,1,4.126-9.375q4.126-3.613,10.815-3.613a23.089,23.089,0,0,1,6.055.806A28.071,28.071,0,0,1,29.053-33.3L25.146-23.95a16.024,16.024,0,0,0-3.723-2.087,10.047,10.047,0,0,0-3.625-.72,3.967,3.967,0,0,0-2.075.452,1.406,1.406,0,0,0-.732,1.257q0,1.514,5.347,2.661.854.2,1.318.293A10.183,10.183,0,0,1,27.466-18.7a9.4,9.4,0,0,1,2.124,6.2,12.3,12.3,0,0,1-4.285,9.692Q21.021.952,14.16.952a25.571,25.571,0,0,1-7.031-1A31.845,31.845,0,0,1,.1-3.052Z" transform="matrix(0.98, -0.17, 0.17, 0.98, 7.25, 80.77)" fill="#707070"/>
      </g>
      <g transform="matrix(1, 0, 0, 1, 474.64, 584.65)" filter="url(#패스_6-2)">
        <path id="패스_6-4" data-name="패스 6" d="M.1-3.052l4.1-10.01a26.526,26.526,0,0,0,4.919,2.82,10.64,10.64,0,0,0,4.041.891,3.727,3.727,0,0,0,2.075-.5,1.549,1.549,0,0,0,.757-1.355q0-1.489-3.784-2.271-1.221-.269-1.9-.415a11.288,11.288,0,0,1-6.128-3.467,9.223,9.223,0,0,1-2.124-6.2,11.879,11.879,0,0,1,4.126-9.375q4.126-3.613,10.815-3.613a23.089,23.089,0,0,1,6.055.806A28.071,28.071,0,0,1,29.053-33.3L25.146-23.95a16.024,16.024,0,0,0-3.723-2.087,10.047,10.047,0,0,0-3.625-.72,3.967,3.967,0,0,0-2.075.452,1.406,1.406,0,0,0-.732,1.257q0,1.514,5.347,2.661.854.2,1.318.293A10.183,10.183,0,0,1,27.466-18.7a9.4,9.4,0,0,1,2.124,6.2,12.3,12.3,0,0,1-4.285,9.692Q21.021.952,14.16.952a25.571,25.571,0,0,1-7.031-1A31.845,31.845,0,0,1,.1-3.052Z" transform="matrix(0.98, -0.17, 0.17, 0.98, 7.25, 80.77)" fill="#fff"/>
      </g>
    </g>
  </g>
</svg>
